
<global>
amp_veltrack=0
ampeg_release=0.35
</global>

<group>
group_label=PP
loop_mode=loop_continuous
xf_cccurve=gain
xfin_hicc1=42
xfout_hicc1=85
xfout_locc1=42

<region>
hikey=g#5
hivel=127
lokey=g5
loop_end=298037
loop_start=130908
loop_xfade=49020
lovel=1
offset=16014
pitch_keycenter=g#5
sample=Violas_tremolo_PP_G#5.opus
</region>

<region>
hikey=g#4
hivel=127
lokey=g4
loop_end=298228
loop_start=130992
loop_xfade=49051
lovel=1
offset=3856
pitch_keycenter=g#4
sample=Violas_tremolo_PP_G#4.opus
</region>

<region>
hikey=g#3
hivel=127
lokey=g3
loop_end=297776
loop_start=130793
loop_xfade=48977
lovel=1
offset=12888
pitch_keycenter=g#3
sample=Violas_tremolo_PP_G#3.opus
</region>

<region>
hikey=f#5
hivel=127
lokey=f5
loop_end=296817
loop_start=130372
loop_xfade=48819
lovel=1
offset=10007
pitch_keycenter=f#5
sample=Violas_tremolo_PP_F#5.opus
</region>

<region>
hikey=f#4
hivel=127
lokey=f4
loop_end=297031
loop_start=130466
loop_xfade=48854
lovel=1
offset=6707
pitch_keycenter=f#4
sample=Violas_tremolo_PP_F#4.opus
</region>

<region>
hikey=f#3
hivel=127
lokey=f3
loop_end=288906
loop_start=126897
loop_xfade=47518
lovel=1
offset=314
pitch_keycenter=f#3
sample=Violas_tremolo_PP_F#3.opus
</region>

<region>
hikey=e5
hivel=127
lokey=d#5
loop_end=298010
loop_start=130896
loop_xfade=49015
lovel=0
offset=14190
pitch_keycenter=e5
sample=Violas_tremolo_PP_E5.opus
</region>

<region>
hikey=e4
hivel=127
lokey=d#4
loop_end=298228
loop_start=130992
loop_xfade=49051
lovel=1
offset=12632
pitch_keycenter=e4
sample=Violas_tremolo_PP_E4.opus
</region>

<region>
hikey=e3
hivel=127
lokey=d#3
loop_end=293758
loop_start=129028
loop_xfade=48316
lovel=1
offset=7646
pitch_keycenter=e3
sample=Violas_tremolo_PP_E3.opus
</region>

<region>
hikey=d5
hivel=127
lokey=c#5
loop_end=298228
loop_start=130992
loop_xfade=49051
lovel=1
offset=2349
pitch_keycenter=d5
sample=Violas_tremolo_PP_D5.opus
</region>

<region>
hikey=d4
hivel=127
lokey=c#4
loop_end=298228
loop_start=130992
loop_xfade=49051
lovel=1
offset=7212
pitch_keycenter=d4
sample=Violas_tremolo_PP_D4.opus
</region>

<region>
hikey=d3
hivel=127
lokey=c#3
loop_end=292561
loop_start=128503
loop_xfade=48119
lovel=1
offset=11588
pitch_keycenter=d3
sample=Violas_tremolo_PP_D3.opus
</region>

<region>
hikey=C#6
hivel=127
lokey=b5
loop_end=298228
loop_start=130992
loop_xfade=49051
lovel=1
offset=13819
pitch_keycenter=C6
sample=Violas_tremolo_PP_C6.opus
</region>

<region>
hikey=c5
hivel=127
lokey=b4
loop_end=298228
loop_start=130992
loop_xfade=49051
lovel=1
offset=14657
pitch_keycenter=c5
sample=Violas_tremolo_PP_C5.opus
</region>

<region>
hikey=c4
hivel=127
lokey=b3
loop_end=298228
loop_start=130992
loop_xfade=49051
lovel=1
offset=13608
pitch_keycenter=c4
sample=Violas_tremolo_PP_C4.opus
</region>

<region>
hivel=127
key=c3
loop_end=298228
loop_start=130992
loop_xfade=49051
lovel=1
offset=14660
sample=Violas_tremolo_PP_C3.opus
</region>

<region>
hikey=a#5
hivel=127
lokey=a5
loop_end=298228
loop_start=130992
loop_xfade=49051
lovel=1
offset=11433
pitch_keycenter=a#5
sample=Violas_tremolo_PP_A#5.opus
</region>

<region>
hikey=a#4
hivel=127
lokey=a4
loop_end=298077
loop_start=130926
loop_xfade=49026
lovel=1
offset=8686
pitch_keycenter=a#4
sample=Violas_tremolo_PP_A#4.opus
</region>

<region>
hikey=a#3
hivel=127
lokey=a3
loop_end=274613
loop_start=120619
loop_xfade=45167
lovel=1
offset=13398
pitch_keycenter=a#3
sample=Violas_tremolo_PP_A#3.opus
</region>
</group>

<group>
group_label=MF
loop_mode=loop_continuous
xf_cccurve=gain
xfin_hicc1=85
xfin_locc1=42
xfout_hicc1=127
xfout_locc1=85

<region>
hikey=g#5
hivel=127
lokey=g5
loop_end=294062
loop_start=129162
loop_xfade=48366
lovel=1
offset=11812
pitch_keycenter=g#5
sample=Violas_tremolo_MF_G#5.opus
</region>

<region>
hikey=g#4
hivel=127
lokey=g4
loop_end=245071
loop_start=107643
loop_xfade=40308
lovel=1
offset=797
pitch_keycenter=g#4
sample=Violas_tremolo_MF_G#4.opus
</region>

<region>
hikey=g#3
hivel=127
lokey=g3
loop_end=242192
loop_start=106379
loop_xfade=39834
lovel=1
pitch_keycenter=g#3
sample=Violas_tremolo_MF_G#3.opus
</region>

<region>
hikey=f#5
hivel=127
lokey=f5
loop_end=271982
loop_start=119464
loop_xfade=44734
lovel=1
offset=575
pitch_keycenter=f#5
sample=Violas_tremolo_MF_F#5.opus
</region>

<region>
hikey=f#4
hivel=127
lokey=f4
loop_end=244077
loop_start=107207
loop_xfade=40144
lovel=1
offset=46
pitch_keycenter=f#4
sample=Violas_tremolo_MF_F#4.opus
</region>

<region>
hikey=f#3
hivel=127
lokey=f3
loop_end=240154
loop_start=105483
loop_xfade=39499
lovel=1
offset=556
pitch_keycenter=f#3
sample=Violas_tremolo_MF_F#3.opus
</region>

<region>
hikey=e5
hivel=127
lokey=d#5
loop_end=274031
loop_start=120364
loop_xfade=45071
lovel=1
offset=418
pitch_keycenter=e5
sample=Violas_tremolo_MF_E5.opus
</region>

<region>
hikey=e4
hivel=127
lokey=d#4
loop_end=243753
loop_start=107064
loop_xfade=40091
lovel=1
offset=841
pitch_keycenter=e4
sample=Violas_tremolo_MF_E4.opus
</region>

<region>
hikey=e3
hivel=127
lokey=d#3
loop_end=248398
loop_start=109105
loop_xfade=40855
lovel=1
offset=426
pitch_keycenter=e3
sample=Violas_tremolo_MF_E3.opus
</region>

<region>
hikey=d5
hivel=127
lokey=c#5
loop_end=250589
loop_start=110067
loop_xfade=41216
lovel=1
offset=749
pitch_keycenter=d5
sample=Violas_tremolo_MF_D5.opus
</region>

<region>
hikey=d4
hivel=127
lokey=c#4
loop_end=248599
loop_start=109193
loop_xfade=40888
lovel=1
pitch_keycenter=d4
sample=Violas_tremolo_MF_D4.opus
</region>

<region>
hikey=d3
hivel=127
lokey=c#3
loop_end=250257
loop_start=109921
loop_xfade=41161
lovel=1
offset=208
pitch_keycenter=d3
sample=Violas_tremolo_MF_D3.opus
</region>

<region>
hikey=C#6
hivel=127
lokey=b5
loop_end=249328
loop_start=109513
loop_xfade=41008
lovel=1
offset=2708
pitch_keycenter=C6
sample=Violas_tremolo_MF_C6.opus
</region>

<region>
hikey=c5
hivel=127
lokey=b4
loop_end=273389
loop_start=120082
loop_xfade=44966
lovel=1
offset=1375
pitch_keycenter=c5
sample=Violas_tremolo_MF_C5.opus
</region>

<region>
hikey=c4
hivel=127
lokey=b3
loop_end=246882
loop_start=108439
loop_xfade=40606
lovel=1
offset=2823
pitch_keycenter=c4
sample=Violas_tremolo_MF_C4.opus
</region>

<region>
hivel=127
key=c3
loop_end=254280
loop_start=111688
loop_xfade=41823
lovel=1
offset=1807
sample=Violas_tremolo_MF_C3.opus
</region>

<region>
hikey=a#5
hivel=127
lokey=a5
loop_end=241191
loop_start=105939
loop_xfade=39670
lovel=1
offset=43
pitch_keycenter=a#5
sample=Violas_tremolo_MF_A#5.opus
</region>

<region>
hikey=a#4
hivel=127
lokey=a4
loop_end=245961
loop_start=108034
loop_xfade=40454
lovel=1
offset=353
pitch_keycenter=a#4
sample=Violas_tremolo_MF_A#4.opus
</region>

<region>
hikey=a#3
hivel=127
lokey=a3
loop_end=241090
loop_start=105895
loop_xfade=39653
lovel=1
offset=4102
pitch_keycenter=a#3
sample=Violas_tremolo_MF_A#3.opus
</region>
</group>

<group>
group_label=FF
loop_mode=loop_continuous
xf_cccurve=gain
xfin_hicc1=127
xfin_locc1=85
xfout_hicc1=127
xfout_locc1=127

<region>
hikey=g#5
hivel=127
lokey=g5
loop_end=246669
loop_start=108345
loop_xfade=40571
lovel=1
offset=638
pitch_keycenter=g#5
sample=Violas_tremolo_FF_G#5.opus
volume=-6.00
</region>

<region>
hikey=g#4
hivel=127
lokey=g4
loop_end=241779
loop_start=106198
loop_xfade=39766
lovel=1
pitch_keycenter=g#4
sample=Violas_tremolo_FF_G#4.opus
volume=-6.00
</region>

<region>
hikey=g#3
hivel=127
lokey=g3
loop_end=242954
loop_start=106714
loop_xfade=39960
lovel=1
offset=9
pitch_keycenter=g#3
sample=Violas_tremolo_FF_G#3.opus
volume=-6.00
</region>

<region>
hikey=f#5
hivel=127
lokey=f5
loop_end=242961
loop_start=106716
loop_xfade=39961
lovel=1
pitch_keycenter=f#5
sample=Violas_tremolo_FF_F#5.opus
volume=-6.00
</region>

<region>
hikey=f#4
hivel=127
lokey=f4
loop_end=246037
loop_start=108068
loop_xfade=40467
lovel=1
offset=2
pitch_keycenter=f#4
sample=Violas_tremolo_FF_F#4.opus
volume=-6.00
</region>

<region>
hikey=f#3
hivel=127
lokey=f3
loop_end=247951
loop_start=108908
loop_xfade=40782
lovel=1
offset=219
pitch_keycenter=f#3
sample=Violas_tremolo_FF_F#3.opus
volume=-6.00
</region>

<region>
hikey=e5
hivel=127
lokey=d#5
loop_end=244795
loop_start=107522
loop_xfade=40263
lovel=1
pitch_keycenter=e5
sample=Violas_tremolo_FF_E5.opus
volume=-6.00
</region>

<region>
hikey=e4
hivel=127
lokey=d#4
loop_end=248463
loop_start=109133
loop_xfade=40866
lovel=1
offset=218
pitch_keycenter=e4
sample=Violas_tremolo_FF_E4.opus
volume=-6.00
</region>

<region>
hikey=e3
hivel=127
lokey=d#3
loop_end=253405
loop_start=111304
loop_xfade=41679
lovel=1
offset=305
pitch_keycenter=e3
sample=Violas_tremolo_FF_E3.opus
volume=-6.00
</region>

<region>
hikey=d5
hivel=127
lokey=c#5
loop_end=251423
loop_start=110433
loop_xfade=41353
lovel=1
pitch_keycenter=d5
sample=Violas_tremolo_FF_D5.opus
volume=-6.00
</region>

<region>
hikey=d4
hivel=127
lokey=c#4
loop_end=250274
loop_start=109929
loop_xfade=41164
lovel=1
offset=1005
pitch_keycenter=d4
sample=Violas_tremolo_FF_D4.opus
volume=-6.00
</region>

<region>
hikey=d3
hivel=127
lokey=c#3
loop_end=252707
loop_start=110997
loop_xfade=41564
lovel=1
offset=785
pitch_keycenter=d3
sample=Violas_tremolo_FF_D3.opus
volume=-6.00
</region>

<region>
hikey=C#6
hivel=127
lokey=b5
loop_end=244415
loop_start=107355
loop_xfade=40200
lovel=1
pitch_keycenter=C6
sample=Violas_tremolo_FF_C6.opus
volume=-6.00
</region>

<region>
hikey=c5
hivel=127
lokey=b4
loop_end=241164
loop_start=105927
loop_xfade=39665
lovel=1
offset=1938
pitch_keycenter=c5
sample=Violas_tremolo_FF_C5.opus
volume=-6.00
</region>

<region>
hikey=c4
hivel=127
lokey=b3
loop_end=247630
loop_start=108767
loop_xfade=40729
lovel=1
pitch_keycenter=c4
sample=Violas_tremolo_FF_C4.opus
volume=-6.00
</region>

<region>
hivel=127
key=c3
loop_end=250126
loop_start=109863
loop_xfade=41140
lovel=1
sample=Violas_tremolo_FF_C3.opus
volume=-6.00
</region>

<region>
hikey=a#5
hivel=127
lokey=a5
loop_end=242397
loop_start=106469
loop_xfade=39868
lovel=1
offset=59
pitch_keycenter=a#5
sample=Violas_tremolo_FF_A#5.opus
volume=-6.00
</region>

<region>
hikey=a#4
hivel=127
lokey=a4
loop_end=243740
loop_start=107059
loop_xfade=40089
lovel=1
offset=956
pitch_keycenter=a#4
sample=Violas_tremolo_FF_A#4.opus
volume=-6.00
</region>

<region>
hikey=a#3
hivel=127
lokey=a3
loop_end=245950
loop_start=108029
loop_xfade=40453
lovel=1
pitch_keycenter=a#3
sample=Violas_tremolo_FF_A#3.opus
volume=-6.00
</region>
</group>

<group>
amp_veltrack=80.0
ampeg_release=1.50
group_label=Accent

<region>
hivel=42
key=G5
lovel=0
sample=Violas_staccatissimo_PP_G5_RR1.opus
</region>

<region>
hivel=42
key=G4
lovel=0
sample=Violas_staccatissimo_PP_G4_RR1.opus
</region>

<region>
hivel=42
key=G3
lovel=0
sample=Violas_staccatissimo_PP_G3_RR1.opus
</region>

<region>
hivel=42
key=G#5
lovel=0
sample=Violas_staccatissimo_PP_G#5_RR1.opus
</region>

<region>
hivel=42
key=G#4
lovel=0
sample=Violas_staccatissimo_PP_G#4_RR1.opus
</region>

<region>
hivel=42
key=G#3
lovel=0
sample=Violas_staccatissimo_PP_G#3_RR1.opus
</region>

<region>
hivel=42
key=F5
lovel=0
offset=1294
sample=Violas_staccatissimo_PP_F5_RR1.opus
</region>

<region>
hivel=42
key=F4
lovel=0
sample=Violas_staccatissimo_PP_F4_RR1.opus
</region>

<region>
hivel=42
key=F3
lovel=0
sample=Violas_staccatissimo_PP_F3_RR1.opus
</region>

<region>
hivel=42
key=F#5
lovel=0
sample=Violas_staccatissimo_PP_F#5_RR1.opus
</region>

<region>
hivel=42
key=F#4
lovel=0
sample=Violas_staccatissimo_PP_F#4_RR1.opus
</region>

<region>
hivel=42
key=F#3
lovel=0
sample=Violas_staccatissimo_PP_F#3_RR1.opus
</region>

<region>
hivel=42
key=E5
lovel=0
sample=Violas_staccatissimo_PP_E5_RR1.opus
</region>

<region>
hivel=42
key=E4
lovel=0
sample=Violas_staccatissimo_PP_E4_RR1.opus
</region>

<region>
hivel=42
key=E3
lovel=0
sample=Violas_staccatissimo_PP_E3_RR1.opus
</region>

<region>
hivel=42
key=D5
lovel=0
sample=Violas_staccatissimo_PP_D5_RR1.opus
</region>

<region>
hivel=42
key=D4
lovel=0
sample=Violas_staccatissimo_PP_D4_RR1.opus
</region>

<region>
hivel=42
key=D3
lovel=0
sample=Violas_staccatissimo_PP_D3_RR1.opus
</region>

<region>
hivel=42
key=D#5
lovel=0
sample=Violas_staccatissimo_PP_D#5_RR1.opus
</region>

<region>
hivel=42
key=D#4
lovel=0
sample=Violas_staccatissimo_PP_D#4_RR1.opus
</region>

<region>
hivel=42
key=D#3
lovel=0
sample=Violas_staccatissimo_PP_D#3_RR1.opus
</region>

<region>
hikey=C#6
hivel=42
lokey=C6
lovel=0
pitch_keycenter=C6
sample=Violas_staccatissimo_PP_C6_RR1.opus
</region>

<region>
hivel=42
key=C5
lovel=0
sample=Violas_staccatissimo_PP_C5_RR1.opus
</region>

<region>
hivel=42
key=C4
lovel=0
sample=Violas_staccatissimo_PP_C4_RR1.opus
</region>

<region>
hivel=42
key=C3
lovel=0
sample=Violas_staccatissimo_PP_C3_RR1.opus
</region>

<region>
hivel=42
key=C#5
lovel=0
sample=Violas_staccatissimo_PP_C#5_RR1.opus
</region>

<region>
hivel=42
key=C#4
lovel=0
sample=Violas_staccatissimo_PP_C#4_RR1.opus
</region>

<region>
hivel=42
key=C#3
lovel=0
sample=Violas_staccatissimo_PP_C#3_RR1.opus
</region>

<region>
hivel=42
key=B5
lovel=0
offset=12717
sample=Violas_staccatissimo_PP_B5_RR1.opus
</region>

<region>
hivel=42
key=B4
lovel=0
sample=Violas_staccatissimo_PP_B4_RR1.opus
</region>

<region>
hivel=42
key=B3
lovel=0
sample=Violas_staccatissimo_PP_B3_RR1.opus
</region>

<region>
hivel=42
key=A5
lovel=0
sample=Violas_staccatissimo_PP_A5_RR1.opus
</region>

<region>
hivel=42
key=A4
lovel=0
sample=Violas_staccatissimo_PP_A4_RR1.opus
</region>

<region>
hivel=42
key=A3
lovel=0
sample=Violas_staccatissimo_PP_A3_RR1.opus
</region>

<region>
hivel=42
key=A#5
lovel=0
offset=314
sample=Violas_staccatissimo_PP_A#5_RR1.opus
</region>

<region>
hivel=42
key=a#4
lovel=0
sample=Violas_staccatissimo_PP_A#4_RR1.opus
</region>

<region>
hivel=42
key=A#3
lovel=0
offset=12139
sample=Violas_staccatissimo_PP_A#3_RR1.opus
</region>

<region>
hivel=84
key=G5
lovel=43
offset=2911
sample=Violas_staccatissimo_MF_G5_RR1.opus
</region>

<region>
hivel=84
key=G4
lovel=43
sample=Violas_staccatissimo_MF_G4_RR1.opus
</region>

<region>
hivel=84
key=G3
lovel=43
sample=Violas_staccatissimo_MF_G3_RR1.opus
</region>

<region>
hivel=84
key=G#5
lovel=43
sample=Violas_staccatissimo_MF_G#5_RR1.opus
</region>

<region>
hivel=84
key=G#4
lovel=43
sample=Violas_staccatissimo_MF_G#4_RR1.opus
</region>

<region>
hivel=84
key=G#3
lovel=43
sample=Violas_staccatissimo_MF_G#3_RR1.opus
</region>

<region>
hivel=84
key=F5
lovel=43
sample=Violas_staccatissimo_MF_F5_RR1.opus
</region>

<region>
hivel=84
key=F4
lovel=43
sample=Violas_staccatissimo_MF_F4_RR1.opus
</region>

<region>
hivel=84
key=F3
lovel=43
sample=Violas_staccatissimo_MF_F3_RR1.opus
</region>

<region>
hivel=84
key=F#5
lovel=43
offset=12530
sample=Violas_staccatissimo_MF_F#5_RR1.opus
</region>

<region>
hivel=84
key=F#4
lovel=43
sample=Violas_staccatissimo_MF_F#4_RR1.opus
</region>

<region>
hivel=84
key=F#3
lovel=43
sample=Violas_staccatissimo_MF_F#3_RR1.opus
</region>

<region>
hivel=84
key=E5
lovel=43
offset=13777
sample=Violas_staccatissimo_MF_E5_RR1.opus
</region>

<region>
hivel=84
key=E4
lovel=43
sample=Violas_staccatissimo_MF_E4_RR1.opus
</region>

<region>
hivel=84
key=E3
lovel=43
sample=Violas_staccatissimo_MF_E3_RR1.opus
</region>

<region>
hivel=84
key=D5
lovel=43
sample=Violas_staccatissimo_MF_D5_RR1.opus
</region>

<region>
hivel=84
key=D4
lovel=43
sample=Violas_staccatissimo_MF_D4_RR1.opus
</region>

<region>
hivel=84
key=D3
lovel=43
sample=Violas_staccatissimo_MF_D3_RR1.opus
</region>

<region>
hivel=84
key=D#5
lovel=43
sample=Violas_staccatissimo_MF_D#5_RR1.opus
</region>

<region>
hivel=84
key=D#4
lovel=43
sample=Violas_staccatissimo_MF_D#4_RR1.opus
</region>

<region>
hivel=84
key=D#3
lovel=43
sample=Violas_staccatissimo_MF_D#3_RR1.opus
</region>

<region>
hikey=C#6
hivel=84
lokey=C6
lovel=43
offset=12833
pitch_keycenter=C6
sample=Violas_staccatissimo_MF_C6_RR1.opus
</region>

<region>
hivel=84
key=C5
lovel=43
sample=Violas_staccatissimo_MF_C5_RR1.opus
</region>

<region>
hivel=84
key=C4
lovel=43
sample=Violas_staccatissimo_MF_C4_RR1.opus
</region>

<region>
hivel=84
key=C3
lovel=43
sample=Violas_staccatissimo_MF_C3_RR1.opus
</region>

<region>
hivel=84
key=C#5
lovel=43
sample=Violas_staccatissimo_MF_C#5_RR1.opus
</region>

<region>
hivel=84
key=C#4
lovel=43
sample=Violas_staccatissimo_MF_C#4_RR1.opus
</region>

<region>
hivel=84
key=C#3
lovel=43
sample=Violas_staccatissimo_MF_C#3_RR1.opus
</region>

<region>
hivel=84
key=B5
lovel=43
offset=12817
sample=Violas_staccatissimo_MF_B5_RR1.opus
</region>

<region>
hivel=84
key=B4
lovel=43
sample=Violas_staccatissimo_MF_B4_RR1.opus
</region>

<region>
hivel=84
key=B3
lovel=43
sample=Violas_staccatissimo_MF_B3_RR1.opus
</region>

<region>
hivel=84
key=A5
lovel=43
sample=Violas_staccatissimo_MF_A5_RR1.opus
</region>

<region>
hivel=84
key=A4
lovel=43
sample=Violas_staccatissimo_MF_A4_RR1.opus
</region>

<region>
hivel=84
key=A3
lovel=43
sample=Violas_staccatissimo_MF_A3_RR1.opus
</region>

<region>
hivel=84
key=A#5
lovel=43
sample=Violas_staccatissimo_MF_A#5_RR1.opus
</region>

<region>
hivel=84
key=A#4
lovel=43
sample=Violas_staccatissimo_MF_A#4_RR1.opus
</region>

<region>
hivel=84
key=A#3
lovel=43
sample=Violas_staccatissimo_MF_A#3_RR1.opus
</region>

<region>
hivel=127
key=G5
lovel=85
sample=Violas_staccatissimo_FF_G5_RR1.opus
</region>

<region>
hivel=127
key=G4
lovel=85
offset=14049
sample=Violas_staccatissimo_FF_G4_RR1.opus
</region>

<region>
hivel=127
key=G3
lovel=85
sample=Violas_staccatissimo_FF_G3_RR1.opus
</region>

<region>
hivel=127
key=G#5
lovel=85
sample=Violas_staccatissimo_FF_G#5_RR1.opus
</region>

<region>
hivel=127
key=G#4
lovel=85
sample=Violas_staccatissimo_FF_G#4_RR1.opus
</region>

<region>
hivel=127
key=G#3
lovel=85
offset=11029
sample=Violas_staccatissimo_FF_G#3_RR1.opus
</region>

<region>
hivel=127
key=F5
lovel=85
sample=Violas_staccatissimo_FF_F5_RR1.opus
</region>

<region>
hivel=127
key=F4
lovel=85
offset=14923
sample=Violas_staccatissimo_FF_F4_RR1.opus
</region>

<region>
hivel=127
key=F3
lovel=85
offset=11848
sample=Violas_staccatissimo_FF_F3_RR1.opus
</region>

<region>
hivel=127
key=F#5
lovel=85
offset=12347
sample=Violas_staccatissimo_FF_F#5_RR1.opus
</region>

<region>
hivel=127
key=F#4
lovel=85
offset=12937
sample=Violas_staccatissimo_FF_F#4_RR1.opus
</region>

<region>
hivel=127
key=F#3
lovel=85
offset=10449
sample=Violas_staccatissimo_FF_F#3_RR1.opus
</region>

<region>
hivel=127
key=E5
lovel=85
sample=Violas_staccatissimo_FF_E5_RR1.opus
</region>

<region>
hivel=127
key=E4
lovel=85
sample=Violas_staccatissimo_FF_E4_RR1.opus
</region>

<region>
hivel=127
key=E3
lovel=85
offset=13007
sample=Violas_staccatissimo_FF_E3_RR1.opus
</region>

<region>
hivel=127
key=D5
lovel=85
sample=Violas_staccatissimo_FF_D5_RR1.opus
</region>

<region>
hivel=127
key=D4
lovel=85
sample=Violas_staccatissimo_FF_D4_RR1.opus
</region>

<region>
hivel=127
key=D3
lovel=85
sample=Violas_staccatissimo_FF_D3_RR1.opus
</region>

<region>
hivel=127
key=D#5
lovel=85
offset=13789
sample=Violas_staccatissimo_FF_D#5_RR1.opus
</region>

<region>
hivel=127
key=D#4
lovel=85
sample=Violas_staccatissimo_FF_D#4_RR1.opus
</region>

<region>
hivel=127
key=D#3
lovel=85
offset=12661
sample=Violas_staccatissimo_FF_D#3_RR1.opus
</region>

<region>
hikey=C#6
hivel=127
lokey=C6
lovel=85
offset=12239
pitch_keycenter=C6
sample=Violas_staccatissimo_FF_C6_RR1.opus
</region>

<region>
hivel=127
key=C5
lovel=85
offset=13544
sample=Violas_staccatissimo_FF_C5_RR1.opus
</region>

<region>
hivel=127
key=C4
lovel=85
sample=Violas_staccatissimo_FF_C4_RR1.opus
</region>

<region>
hivel=127
key=C3
lovel=85
sample=Violas_staccatissimo_FF_C3_RR1.opus
</region>

<region>
hivel=127
key=C#5
lovel=85
offset=10934
sample=Violas_staccatissimo_FF_C#5_RR1.opus
</region>

<region>
hivel=127
key=C#4
lovel=85
sample=Violas_staccatissimo_FF_C#4_RR1.opus
</region>

<region>
hivel=127
key=C#3
lovel=85
sample=Violas_staccatissimo_FF_C#3_RR1.opus
</region>

<region>
hivel=127
key=B5
lovel=85
offset=11374
sample=Violas_staccatissimo_FF_B5_RR1.opus
</region>

<region>
hivel=127
key=B4
lovel=85
sample=Violas_staccatissimo_FF_B4_RR1.opus
</region>

<region>
hivel=127
key=B3
lovel=85
sample=Violas_staccatissimo_FF_B3_RR1.opus
</region>

<region>
hivel=127
key=A5
lovel=85
offset=12024
sample=Violas_staccatissimo_FF_A5_RR1.opus
</region>

<region>
hivel=127
key=A4
lovel=85
sample=Violas_staccatissimo_FF_A4_RR1.opus
</region>

<region>
hivel=127
key=A3
lovel=85
offset=12761
sample=Violas_staccatissimo_FF_A3_RR1.opus
</region>

<region>
hivel=127
key=A#5
lovel=85
offset=11834
sample=Violas_staccatissimo_FF_A#5_RR1.opus
</region>

<region>
hivel=127
key=A#4
lovel=85
sample=Violas_staccatissimo_FF_A#4_RR1.opus
</region>

<region>
hivel=127
key=A#3
lovel=85
sample=Violas_staccatissimo_FF_A#3_RR1.opus
</region>
</group>